<?xml version="1.0" encoding="utf-8"?>
<!-- Generator: Adobe Illustrator 27.0.0, SVG Export Plug-In . SVG Version: 6.00 Build 0)  -->
<svg version="1.1" xmlns="http://www.w3.org/2000/svg" xmlns:xlink="http://www.w3.org/1999/xlink" x="0px" y="0px"
	 viewBox="0 0 48 48" style="enable-background:new 0 0 48 48;" xml:space="preserve">
<style type="text/css">
	.st0{fill:none;}
	.st1{fill:#4285F4;}
	.st2{fill:#34A853;}
	.st3{fill:#F4B400;}
	.st4{fill:#EA4335;}
	.st5{display:none;}
	.st6{display:inline;fill:url(#SVGID_1_);}
	.st7{display:inline;fill:url(#SVGID_00000150086980070381023110000005312187618472438168_);}
	.st8{display:inline;fill:url(#SVGID_00000106113684757756826030000000720009199638287541_);}
	.st9{display:inline;fill:url(#SVGID_00000143606623612009652380000016424883651373889708_);}
	.st10{display:inline;fill:url(#SVGID_00000044861194636324585990000000452653304281031835_);}
</style>
<g id="Layer_1">
	<path class="st0" d="M24,23.9c0.6,0,1.1-0.2,1.5-0.7c0.4-0.5,0.6-1,0.6-1.6V9c0-0.6-0.2-1-0.6-1.4C25.1,7.2,24.6,7,24,7
		s-1.1,0.2-1.5,0.6C22.1,8,22,8.4,22,9v12.5c0,0.6,0.2,1.2,0.6,1.6C22.9,23.6,23.4,23.9,24,23.9z"/>
	<path class="st1" d="M24,26.9c1.4,0,2.6-0.5,3.6-1.5c1-1,1.5-2.3,1.5-3.8V9c0-1.4-0.5-2.6-1.5-3.5S25.4,4,24,4s-2.6,0.5-3.6,1.5
		S19,7.6,19,9v12.5c0,1.5,0.5,2.7,1.5,3.8C21.4,26.3,22.6,26.9,24,26.9z"/>
	<rect x="22.5" y="35.2" class="st2" width="3" height="6.8"/>
	<path class="st3" d="M16.2,29.2c-2.1-2.1-3.2-4.6-3.2-7.7h-3c0,3.5,1.2,6.6,3.6,9.2c0.5,0.6,1.1,1.1,1.7,1.6l2.2-2.1
		C17,29.9,16.6,29.6,16.2,29.2z"/>
	<path class="st4" d="M35,21.6c0,3-1.1,5.6-3.2,7.7c-2.2,2.1-4.7,3.1-7.8,3.1c-2.5,0-4.7-0.7-6.5-2.1l-2.2,2.1
		c2.1,1.6,4.5,2.6,7.2,2.9h3c3.5-0.4,6.5-1.9,8.9-4.5c2.4-2.6,3.6-5.7,3.6-9.2H35z"/>
</g>
<g id="Layer_1_copy" class="st5">
	<linearGradient id="SVGID_1_" gradientUnits="userSpaceOnUse" x1="21.95" y1="15.425" x2="26.05" y2="15.425">
		<stop  offset="0" style="stop-color:#D92728"/>
		<stop  offset="0.505" style="stop-color:#BC00E6"/>
		<stop  offset="1" style="stop-color:#3F00F9"/>
	</linearGradient>
	<path class="st6" d="M24,23.9c0.6,0,1.1-0.2,1.5-0.7c0.4-0.5,0.6-1,0.6-1.6V9c0-0.6-0.2-1-0.6-1.4C25.1,7.2,24.6,7,24,7
		s-1.1,0.2-1.5,0.6C22.1,8,22,8.4,22,9v12.5c0,0.6,0.2,1.2,0.6,1.6C22.9,23.6,23.4,23.9,24,23.9z"/>
	
		<linearGradient id="SVGID_00000108280850654067603550000005502705995763867304_" gradientUnits="userSpaceOnUse" x1="18.95" y1="15.425" x2="29.05" y2="15.425">
		<stop  offset="0" style="stop-color:#D92728"/>
		<stop  offset="0.505" style="stop-color:#BC00E6"/>
		<stop  offset="1" style="stop-color:#3F00F9"/>
	</linearGradient>
	<path style="display:inline;fill:url(#SVGID_00000108280850654067603550000005502705995763867304_);" d="M24,26.9
		c1.4,0,2.6-0.5,3.6-1.5c1-1,1.5-2.3,1.5-3.8V9c0-1.4-0.5-2.6-1.5-3.5S25.4,4,24,4s-2.6,0.5-3.6,1.5S19,7.6,19,9v12.5
		c0,1.5,0.5,2.7,1.5,3.8C21.4,26.3,22.6,26.9,24,26.9z"/>
	
		<linearGradient id="SVGID_00000167360011394826168240000001306389573026605472_" gradientUnits="userSpaceOnUse" x1="22.5" y1="38.6001" x2="25.5" y2="38.6001">
		<stop  offset="0" style="stop-color:#D92728"/>
		<stop  offset="0.505" style="stop-color:#BC00E6"/>
		<stop  offset="1" style="stop-color:#3F00F9"/>
	</linearGradient>
	
		<rect x="22.5" y="35.2" style="display:inline;fill:url(#SVGID_00000167360011394826168240000001306389573026605472_);" width="3" height="6.8"/>
	
		<linearGradient id="SVGID_00000163753118761309487050000018267175687295614883_" gradientUnits="userSpaceOnUse" x1="10" y1="26.9251" x2="17.4554" y2="26.9251">
		<stop  offset="0" style="stop-color:#D92728"/>
		<stop  offset="0.505" style="stop-color:#BC00E6"/>
		<stop  offset="1" style="stop-color:#3F00F9"/>
	</linearGradient>
	<path style="display:inline;fill:url(#SVGID_00000163753118761309487050000018267175687295614883_);" d="M16.2,29.2
		c-2.1-2.1-3.2-4.6-3.2-7.7h-3c0,3.5,1.2,6.6,3.6,9.2c0.5,0.6,1.1,1.1,1.7,1.6l2.2-2.1C17,29.9,16.6,29.6,16.2,29.2z"/>
	
		<linearGradient id="SVGID_00000006671940774906044740000005985427588820453291_" gradientUnits="userSpaceOnUse" x1="15.2781" y1="28.3751" x2="38" y2="28.3751">
		<stop  offset="0" style="stop-color:#D92728"/>
		<stop  offset="0.505" style="stop-color:#BC00E6"/>
		<stop  offset="1" style="stop-color:#3F00F9"/>
	</linearGradient>
	<path style="display:inline;fill:url(#SVGID_00000006671940774906044740000005985427588820453291_);" d="M35,21.6
		c0,3-1.1,5.6-3.2,7.7c-2.2,2.1-4.7,3.1-7.8,3.1c-2.5,0-4.7-0.7-6.5-2.1l-2.2,2.1c2.1,1.6,4.5,2.6,7.2,2.9h3
		c3.5-0.4,6.5-1.9,8.9-4.5c2.4-2.6,3.6-5.7,3.6-9.2H35z"/>
</g>
</svg>
