<?xml version="1.0" encoding="UTF-8"?>
<svg id="Layer_2" data-name="Layer 2" xmlns="http://www.w3.org/2000/svg" viewBox="0 0 40 36">
  <defs>
    <style>
      .cls-1 {
        fill: #4285f4;
      }

      .cls-2 {
        fill: #fbbc05;
      }

      .cls-3 {
        fill: none;
      }

      .cls-4 {
        fill: #34a853;
      }

      .cls-5 {
        fill: #ea4335;
      }
    </style>
  </defs>
  <g id="Layer_1-2" data-name="Layer 1">
    <g>
      <path class="cls-5" d="M3,33v-12.77H0v12.77c0,.8,.3,1.5,.9,2.1,.6,.6,1.3,.9,2.1,.9H20.15v-3H3Z"/>
      <rect class="cls-3" x="3" y="18" width="2.29" height="2.23"/>
      <polygon class="cls-3" points="29.75 4.35 29.12 3.71 29.65 4.35 29.75 4.35"/>
      <polygon class="cls-3" points="32.75 7.35 33.78 8.38 32.75 7.35 28.25 7.35 24.6 3 15.4 3 11.75 7.35 3 7.35 3 18 5.29 18 5.29 20.23 3 20.23 3 33 20.15 33 37 33 37 20.23 35.35 20.23 37 20.23 37 7.35 32.75 7.35"/>
      <path class="cls-2" d="M39.08,5.28c-.62-.62-1.31-.93-2.08-.93h-7.25l3,3h4.25v12.88h3V7.35c0-.77-.31-1.46-.92-2.07Z"/>
      <path class="cls-1" d="M11.75,7.35l3.65-4.35h9.2l3.65,4.35h4.5l-3-3h-.1l-.53-.64h0s0,0,0,0l-3.12-3.71H14l-3.65,4.35H3c-.8,0-1.5,.31-2.1,.93-.6,.62-.9,1.31-.9,2.07v10.65H3V7.35H11.75Z"/>
      <circle class="cls-1" cx="20" cy="18.72" r="7.49"/>
      <circle class="cls-4" cx="36.22" cy="31.85" r="3.3"/>
    </g>
  </g>
</svg>