<svg viewBox="0 0 179 79" fill="current" xmlns="http://www.w3.org/2000/svg" class="left css-qfo2e" color="#C08D55">
      <path opacity="0.502" fill-rule="evenodd" clip-rule="evenodd" d="M176.856 4.407a1.47 1.47 0 11-.002-2.94 1.47 1.47 0 01.002 2.94zm-10 0a1.47 1.47 0 11-.002-2.94 1.47 1.47 0 01.002 2.94zm-10 0a1.47 1.47 0 11-.002-2.94 1.47 1.47 0 01.002 2.94zm-10 0a1.47 1.47 0 11-.002-2.94 1.47 1.47 0 01.002 2.94zm-10 0a1.47 1.47 0 11-.002-2.94 1.47 1.47 0 01.002 2.94zm-10 0a1.47 1.47 0 11-.002-2.94 1.47 1.47 0 01.002 2.94zm-10 0a1.47 1.47 0 11-.002-2.94 1.47 1.47 0 01.002 2.94zm-10 0a1.47 1.47 0 11-.002-2.94 1.47 1.47 0 01.002 2.94zm-10 0a1.47 1.47 0 11-.002-2.94 1.47 1.47 0 01.002 2.94zm-10 0a1.47 1.47 0 11-.002-2.94 1.47 1.47 0 01.002 2.94zm-10 0a1.47 1.47 0 11-.002-2.94 1.47 1.47 0 01.002 2.94zm-8.081-.504H20.438c-.488 8.893-7.62 16.024-16.513 16.512v48.147a.965.965 0 11-1.931 0V13.884c0-.533.432-.965.966-.965 5.503 0 9.981-4.478 9.981-9.982 0-.534.432-.966.966-.966h54.868a.965.965 0 110 1.932zm-53.941 0c-.468 5.8-5.109 10.441-10.909 10.909v3.672c7.829-.483 14.099-6.754 14.582-14.581h-3.673zM0 0h7v7H0V0zm2.959 75.362a1.47 1.47 0 11.002 2.94 1.47 1.47 0 01-.002-2.94z" fill="#785c3d"/>
    </svg>