<?xml version="1.0" standalone="no"?>
<!DOCTYPE svg PUBLIC "-//W3C//DTD SVG 20010904//EN"
 "http://www.w3.org/TR/2001/REC-SVG-20010904/DTD/svg10.dtd">
<svg version="1.0" xmlns="http://www.w3.org/2000/svg"
 width="120.000000pt" height="120.000000pt" viewBox="0 0 120.000000 120.000000"
 preserveAspectRatio="xMidYMid meet">

<g transform="translate(0.000000,120.000000) scale(0.100000,-0.100000)"
fill="#000000" stroke="none">
<path d="M952 1069 c-83 -14 -221 -70 -298 -121 -38 -26 -98 -77 -134 -114
l-64 -67 -85 7 -85 6 -83 -82 c-46 -45 -83 -88 -83 -95 0 -13 6 -15 115 -39
44 -9 81 -18 83 -19 2 -2 -8 -26 -22 -53 l-26 -50 68 -69 c111 -114 103 -110
158 -79 25 14 48 26 49 26 1 0 10 -37 19 -83 24 -111 26 -117 39 -117 7 0 50
38 96 84 l84 84 -7 84 -7 84 49 42 c137 114 242 325 259 515 l6 67 -39 -1
c-21 -1 -63 -5 -92 -10z m84 -81 c-9 -69 -36 -167 -48 -175 -10 -5 -178 154
-178 169 0 12 153 55 204 57 l29 1 -7 -52z m-102 -289 c-57 -96 -137 -174
-253 -251 -58 -37 -110 -68 -116 -68 -6 0 -26 16 -45 35 l-33 34 51 55 c29 30
52 59 52 65 0 29 -28 18 -79 -33 l-57 -56 -37 38 c-20 21 -37 42 -37 48 0 5
28 52 61 104 71 111 169 209 260 263 l64 37 104 -104 104 -104 -39 -63z m-522
33 c14 -6 11 -15 -22 -71 -21 -35 -42 -67 -47 -71 -7 -8 -150 16 -162 27 -3 2
22 30 54 63 57 58 61 60 110 59 27 0 58 -3 67 -7z m-14 -245 l32 -33 -30 -29
-30 -29 -27 27 c-27 26 -27 27 -10 62 9 19 20 35 25 35 4 0 22 -15 40 -33z
m340 -124 l3 -68 -60 -59 c-33 -33 -62 -58 -64 -55 -2 2 -9 32 -16 67 -6 35
-14 69 -17 76 -3 9 22 30 68 60 40 25 75 46 78 46 3 0 7 -30 8 -67z m-240 24
l31 -32 -38 -22 -38 -22 -28 29 -28 29 29 25 c16 14 31 26 35 26 3 0 19 -15
37 -33z"/>
<path d="M649 801 c-57 -57 -31 -158 45 -180 47 -12 80 -4 113 31 22 23 28 38
28 74 0 39 -5 50 -33 75 -46 41 -111 41 -153 0z m134 -33 c9 -11 17 -31 17
-45 0 -26 -41 -73 -64 -73 -30 0 -65 23 -74 49 -27 76 69 131 121 69z"/>
</g>
</svg>
